<svg width="83" height="100" viewBox="0 0 83 100" fill="none" xmlns="http://www.w3.org/2000/svg">
<g clip-path="url(#clip0_102_2)">
<path d="M15.722 41.706L16.516 41.725L17.301 41.711C17.552 41.704 17.78 41.709 18.048 41.692L18.866 41.635C19.952 41.558 20.973 41.398 22.022 41.203C23.055 40.976 24.087 40.725 25.089 40.38C27.103 39.72 29.021 38.794 30.815 37.689C31.988 36.954 33.102 36.135 34.158 35.251L24.904 51.265C24.333 52.253 24.672 53.516 25.658 54.087C26.646 54.657 27.909 54.317 28.48 53.331L33.534 44.584L41.589 30.644C41.816 30.934 42.041 31.226 42.276 31.508C42.955 32.312 43.671 33.08 44.429 33.809C44.863 34.233 45.316 34.641 45.782 35.035C45.809 35.06 45.841 35.084 45.869 35.108C46.322 35.489 46.783 35.86 47.26 36.216V36.21C47.948 36.729 48.652 37.23 49.385 37.689C51.18 38.793 53.097 39.721 55.111 40.38C56.114 40.727 57.145 40.978 58.178 41.203C59.224 41.398 60.247 41.558 61.334 41.635L62.152 41.692C62.422 41.709 62.648 41.704 62.897 41.711L63.684 41.725L64.477 41.705C65.534 41.687 66.604 41.57 67.675 41.413C68.743 41.209 69.815 40.963 70.86 40.559C71.904 40.162 72.927 39.659 73.879 39.027C75.786 37.758 77.356 35.963 78.403 33.957C78.926 32.952 79.329 31.9 79.632 30.825C79.773 30.285 79.898 29.742 79.99 29.188C80.038 28.91 80.078 28.632 80.107 28.346C80.135 28.077 80.157 27.851 80.17 27.524C80.196 27.16 80.198 26.919 80.198 26.624C80.198 26.325 80.185 26.032 80.168 25.739C80.131 25.154 80.056 24.576 79.954 23.999C79.734 22.849 79.408 21.706 78.906 20.617C78.411 19.528 77.763 18.489 76.971 17.563C76.182 16.636 75.252 15.832 74.25 15.172C73.249 14.503 72.17 13.999 71.078 13.611C69.984 13.208 68.872 12.958 67.764 12.765C67.209 12.689 66.666 12.592 66.085 12.556L65.226 12.486C64.95 12.469 64.713 12.467 64.454 12.458L63.638 12.437L62.817 12.458C62.27 12.463 61.724 12.501 61.175 12.551C60.082 12.634 58.988 12.81 57.906 13.027C56.827 13.265 55.755 13.551 54.712 13.929C53.66 14.283 52.649 14.75 51.652 15.239C50.671 15.755 49.714 16.321 48.802 16.952C47.76 17.681 46.777 18.49 45.851 19.355C45.651 19.541 45.455 19.731 45.258 19.925C45.125 20.057 44.993 20.189 44.863 20.323C44.535 20.665 44.211 21.013 43.904 21.373C43.187 22.207 42.522 23.082 41.908 23.998C41.603 24.456 41.308 24.924 41.03 25.408C40.747 25.906 40.497 26.36 40.225 26.959L40.097 27.239L39.97 26.959C39.698 26.36 39.447 25.906 39.165 25.408C38.887 24.924 38.592 24.457 38.287 23.998C37.674 23.083 37.007 22.207 36.293 21.373C35.877 20.889 35.442 20.425 34.988 19.975C34.961 19.948 34.93 19.921 34.902 19.891C34.461 19.457 34.006 19.037 33.536 18.631L33.534 18.629C32.847 18.038 32.137 17.473 31.392 16.953C30.483 16.32 29.525 15.756 28.543 15.24C27.546 14.751 26.536 14.283 25.485 13.93C24.442 13.553 23.369 13.266 22.29 13.028C21.207 12.81 20.115 12.634 19.021 12.552C18.473 12.502 17.927 12.464 17.38 12.459L16.561 12.438L15.743 12.459C15.485 12.469 15.245 12.47 14.971 12.487L14.112 12.557C13.531 12.593 12.988 12.69 12.433 12.766C11.325 12.959 10.212 13.209 9.11899 13.612C8.02599 13.999 6.94699 14.504 5.94599 15.173C4.94399 15.833 4.01499 16.637 3.22699 17.564C2.43499 18.488 1.78699 19.528 1.28999 20.618C0.788994 21.707 0.460993 22.85 0.243993 24C0.140993 24.576 0.0669934 25.155 0.0289934 25.74C0.00999339 26.033 -0.00100674 26.326 -0.00200674 26.625C-0.00300674 26.919 -6.93835e-06 27.16 0.0269931 27.525C0.0389931 27.853 0.0599933 28.079 0.0889933 28.347C0.117993 28.633 0.159993 28.91 0.204993 29.189C0.297993 29.743 0.421993 30.287 0.566993 30.826C0.866993 31.902 1.27099 32.952 1.79499 33.958C2.84099 35.964 4.41199 37.759 6.31899 39.028C7.27199 39.661 8.29299 40.163 9.33799 40.56C10.381 40.964 11.453 41.209 12.522 41.414C13.595 41.571 14.665 41.689 15.722 41.706ZM44.676 27.533C44.905 27.138 45.16 26.751 45.419 26.368C45.944 25.605 46.517 24.868 47.131 24.173C47.173 24.126 47.216 24.081 47.259 24.033C48.449 22.69 49.786 21.486 51.247 20.471C54.27 18.362 57.837 17.125 61.543 16.827C62.006 16.785 62.471 16.751 62.939 16.75L63.639 16.731L64.341 16.744C64.588 16.753 64.856 16.751 65.089 16.765L65.747 16.817C66.178 16.836 66.638 16.917 67.085 16.972C67.976 17.118 68.853 17.307 69.665 17.602C70.484 17.883 71.261 18.239 71.951 18.694C73.343 19.588 74.427 20.832 75.126 22.342C75.48 23.092 75.724 23.912 75.894 24.751C75.973 25.172 76.032 25.599 76.066 26.027C76.082 26.239 76.093 26.451 76.097 26.661C76.101 26.853 76.093 27.109 76.089 27.203L76.078 27.389V27.394C76.076 27.486 76.064 27.736 76.045 27.922C76.024 28.124 75.997 28.331 75.968 28.536C75.902 28.949 75.813 29.361 75.712 29.77C75.495 30.583 75.202 31.372 74.831 32.109C74.079 33.581 73.007 34.835 71.664 35.759C70.988 36.218 70.248 36.595 69.469 36.905C68.689 37.221 67.845 37.419 66.997 37.602C66.135 37.745 65.255 37.864 64.351 37.879L63.676 37.9L62.995 37.879C62.756 37.867 62.493 37.867 62.273 37.849L61.625 37.79C60.761 37.719 59.847 37.561 58.972 37.386C58.097 37.178 57.224 36.956 56.379 36.647C54.677 36.064 53.057 35.25 51.53 34.28C50.012 33.296 48.589 32.155 47.303 30.868C47.287 30.853 47.273 30.836 47.256 30.822C47.252 30.817 47.247 30.812 47.243 30.808C46.935 30.499 46.634 30.183 46.341 29.861C46.043 29.53 45.751 29.194 45.471 28.852C45.187 28.5 44.908 28.145 44.649 27.783C44.628 27.753 44.606 27.72 44.586 27.689C44.618 27.639 44.645 27.583 44.676 27.533ZM8.53399 35.76C7.18999 34.836 6.11799 33.582 5.36699 32.11C4.99399 31.373 4.70299 30.583 4.48599 29.771C4.38299 29.363 4.29499 28.951 4.22999 28.537C4.19899 28.331 4.17199 28.124 4.15199 27.923C4.13199 27.736 4.11899 27.486 4.11699 27.395V27.39L4.10699 27.204C4.10299 27.11 4.09399 26.853 4.09999 26.662C4.10299 26.453 4.11599 26.24 4.13199 26.028C4.16499 25.599 4.22599 25.174 4.30299 24.752C4.47199 23.913 4.71699 23.093 5.07199 22.343C5.77199 20.834 6.85699 19.589 8.24799 18.695C8.93699 18.239 9.71299 17.883 10.533 17.603C11.346 17.308 12.222 17.118 13.112 16.972C13.561 16.916 14.02 16.836 14.452 16.818L15.11 16.765C15.341 16.751 15.61 16.752 15.86 16.744L16.562 16.733L17.261 16.752C17.73 16.753 18.194 16.787 18.657 16.829C22.364 17.126 25.93 18.363 28.954 20.473C30.466 21.524 31.85 22.774 33.071 24.175C33.233 24.36 33.384 24.553 33.541 24.742C33.744 24.988 33.943 25.239 34.137 25.491C34.358 25.78 34.575 26.072 34.781 26.37C35.041 26.752 35.295 27.141 35.526 27.535C35.556 27.586 35.581 27.642 35.614 27.695C35.592 27.726 35.572 27.759 35.55 27.788C35.29 28.15 35.01 28.505 34.727 28.857C34.35 29.318 33.95 29.762 33.541 30.198L33.539 30.2C33.325 30.426 33.117 30.654 32.897 30.872C31.61 32.159 30.185 33.301 28.669 34.284C27.144 35.252 25.523 36.067 23.822 36.651C22.977 36.96 22.104 37.181 21.228 37.39C20.355 37.565 19.439 37.722 18.572 37.794L17.926 37.853C17.706 37.871 17.445 37.872 17.206 37.882L16.524 37.903L15.848 37.882C14.946 37.866 14.067 37.748 13.203 37.606C12.354 37.424 11.512 37.226 10.731 36.909C9.94699 36.598 9.20899 36.22 8.53399 35.76Z" fill="white"/>
<path d="M47.26 27.51C47.245 27.531 47.229 27.551 47.216 27.571C47.229 27.588 47.245 27.604 47.26 27.62V27.51Z" fill="white"/>
<path d="M33.535 15.852C35.157 17.081 36.64 18.453 37.934 19.966C38.704 20.862 39.426 21.813 40.09 22.802C40.093 22.806 40.096 22.81 40.098 22.815C40.102 22.807 40.109 22.799 40.113 22.792C40.77 21.813 41.493 20.861 42.262 19.966C43.714 18.271 45.4 16.744 47.259 15.408V12.163C47.259 12.163 47.884 -0.00100708 40.396 -0.00100708C32.912 -0.00100708 33.534 11.54 33.534 11.54L33.535 15.852Z" fill="white"/>
<path d="M76.267 47.151C62.856 45.123 47.26 47.151 47.26 47.151V38.873C45.707 37.821 44.249 36.649 42.926 35.364C42.591 35.04 42.259 34.707 41.936 34.367L33.536 48.906V65.866C33.536 70.544 32.787 70.807 31.976 70.077C30.553 68.795 26.518 62.747 26.518 62.747C26.518 62.747 21.892 54.326 15.289 58.85C9.01299 63.15 12.95 68.207 12.95 68.207C12.95 68.207 30.358 90.78 32.235 92.659C33.097 93.519 35.106 96.831 36.712 99.853C38.001 99.939 39.299 99.999 40.61 99.999C55.629 99.999 69.318 94.3 79.634 84.945C82.337 72.437 86.125 48.641 76.267 47.151Z" fill="white"/>
</g>
<defs>
<clipPath id="clip0_102_2">
<rect width="83" height="100" fill="white"/>
</clipPath>
</defs>
</svg>
